M48
;Layer_Color=6321
;FILE_FORMAT=2:5
INCH,LZ
;TYPE=PLATED
T1F00S00C0.02800
T2F00S00C0.03000
T3F00S00C0.03500
T4F00S00C0.03937
T5F00S00C0.04000
T6F00S00C0.04331
T7F00S00C0.05500
T8F00S00C0.05512
T9F00S00C0.06300
T10F00S00C0.12500
%
T01
X101Y053
T02
X1055Y053
X1025Y0655
T03
X09752Y0496
X09852
X10052
X10152
T04
X1070158Y05
X108
X1089843
T05
X113Y053
X115
Y054
Y055
Y056
Y057
Y058
Y059
Y06
Y061
Y062
X124
Y061
Y06
Y059
Y058
Y057
Y056
Y055
Y054
Y053
Y052
X115
X108Y056
X105
X1025Y058
X105Y067
X111
X115Y066
Y065
Y064
Y063
X124
Y064
Y065
Y066
T06
X1115Y05
X1125
T07
X094Y051
X085
Y067
X094
T08
X0970472Y058
X0985236
X1
Y0639055
Y065874
Y0678425
X0970472
Y065874
X0970472Y0639055
T09
X094Y058
Y06
X085Y064
X094
T10
X1264Y0496
X0816
Y0684
X1264
M30
