G04 Layer_Physical_Order=2*
G04 Layer_Color=11436288*
%FSLAX25Y25*%
%MOIN*%
G70*
G01*
G75*
%ADD15C,0.01000*%
%ADD16C,0.03000*%
%ADD17C,0.09000*%
%ADD18R,0.06000X0.06000*%
%ADD19C,0.06000*%
%ADD20C,0.06299*%
%ADD21R,0.06299X0.06299*%
%ADD22C,0.11000*%
%ADD23C,0.07000*%
%ADD24C,0.07874*%
%ADD25C,0.07500*%
%ADD26R,0.07500X0.07500*%
%ADD27C,0.15000*%
%ADD28R,0.07000X0.07000*%
%ADD29C,0.05000*%
G36*
X1250000Y700000D02*
Y490353D01*
X1249646Y490000D01*
X1100000Y490000D01*
X1089592D01*
X1089471Y490485D01*
X1089629Y490569D01*
X1090618Y491382D01*
X1091431Y492371D01*
X1092034Y493501D01*
X1092406Y494726D01*
X1092531Y496000D01*
X1092406Y497274D01*
X1092034Y498499D01*
X1091431Y499629D01*
X1090618Y500618D01*
X1089629Y501431D01*
X1088500Y502034D01*
X1087274Y502406D01*
X1086000Y502531D01*
X1084726Y502406D01*
X1083500Y502034D01*
X1082371Y501431D01*
X1081382Y500618D01*
X1080569Y499629D01*
X1079966Y498499D01*
X1079594Y497274D01*
X1079469Y496000D01*
X1079594Y494726D01*
X1079966Y493501D01*
X1080569Y492371D01*
X1081382Y491382D01*
X1082371Y490569D01*
X1082529Y490485D01*
X1082407Y490000D01*
X1074000D01*
Y524000D01*
X1071011Y526989D01*
X1071202Y527451D01*
X1082725D01*
X1083041Y527040D01*
X1083907Y526375D01*
X1084917Y525957D01*
X1085500Y525880D01*
Y530000D01*
Y534120D01*
X1084917Y534043D01*
X1083907Y533625D01*
X1083041Y532960D01*
X1082725Y532549D01*
X1065451D01*
X1056000Y542000D01*
X952000D01*
X948000Y538000D01*
X930000D01*
X926000Y542000D01*
Y574000D01*
X922000Y578000D01*
X906000D01*
X902000Y582000D01*
Y664000D01*
X906000Y668000D01*
X947206D01*
X947397Y667538D01*
X928679Y648820D01*
X927464Y648980D01*
X926175Y648810D01*
X924974Y648313D01*
X923943Y647521D01*
X923151Y646490D01*
X922654Y645289D01*
X922484Y644000D01*
X922654Y642711D01*
X923151Y641510D01*
X923943Y640479D01*
X924974Y639687D01*
X926175Y639190D01*
X927464Y639020D01*
X928679Y639180D01*
X1013661Y554198D01*
X1014488Y553645D01*
X1015464Y553451D01*
X1102944D01*
X1105451Y550944D01*
Y528000D01*
X1105645Y527025D01*
X1106198Y526198D01*
X1110198Y522198D01*
X1111024Y521645D01*
X1112000Y521451D01*
X1115969D01*
X1116612Y520612D01*
X1117605Y519851D01*
X1118760Y519372D01*
X1120000Y519209D01*
X1121240Y519372D01*
X1122396Y519851D01*
X1123388Y520612D01*
X1124149Y521604D01*
X1124628Y522760D01*
X1124791Y524000D01*
X1124628Y525240D01*
X1124149Y526396D01*
X1123388Y527388D01*
X1122396Y528149D01*
X1121240Y528628D01*
X1120328Y528748D01*
Y528770D01*
X1120157D01*
X1120000Y528791D01*
X1119843Y528770D01*
X1119672D01*
Y528748D01*
X1118760Y528628D01*
X1117605Y528149D01*
X1116612Y527388D01*
X1115969Y526549D01*
X1113056D01*
X1110549Y529056D01*
Y552000D01*
X1110355Y552976D01*
X1109802Y553802D01*
X1105802Y557802D01*
X1104975Y558355D01*
X1104000Y558549D01*
X1016520D01*
X932283Y642785D01*
X932443Y644000D01*
X932283Y645215D01*
X954520Y667451D01*
X1036000D01*
X1036975Y667645D01*
X1037802Y668198D01*
X1059175Y689570D01*
X1060000Y689461D01*
X1061175Y689616D01*
X1062269Y690069D01*
X1063209Y690791D01*
X1063931Y691731D01*
X1064384Y692825D01*
X1064539Y694000D01*
X1064384Y695175D01*
X1063931Y696269D01*
X1063209Y697209D01*
X1062269Y697931D01*
X1061175Y698384D01*
X1060000Y698539D01*
X1058825Y698384D01*
X1057731Y697931D01*
X1056791Y697209D01*
X1056069Y696269D01*
X1055616Y695175D01*
X1055461Y694000D01*
X1055570Y693175D01*
X1034944Y672549D01*
X953464D01*
X952500Y672357D01*
X952410Y672341D01*
X952000Y672628D01*
Y687451D01*
X963084D01*
X963591Y686791D01*
X964531Y686069D01*
X965625Y685616D01*
X966300Y685527D01*
Y690000D01*
Y694473D01*
X965625Y694384D01*
X964531Y693931D01*
X963591Y693209D01*
X963084Y692549D01*
X952000D01*
Y699646D01*
X952354Y700000D01*
X1250000Y700000D01*
D02*
G37*
%LPC*%
G36*
X942228Y550554D02*
X940939Y550385D01*
X939738Y549887D01*
X938706Y549096D01*
X937915Y548065D01*
X937418Y546864D01*
X937248Y545575D01*
X937418Y544286D01*
X937915Y543085D01*
X938706Y542054D01*
X939738Y541262D01*
X940939Y540765D01*
X942228Y540595D01*
X943516Y540765D01*
X944717Y541262D01*
X945749Y542054D01*
X946540Y543085D01*
X947038Y544286D01*
X947207Y545575D01*
X947038Y546864D01*
X946540Y548065D01*
X945749Y549096D01*
X944717Y549887D01*
X943516Y550385D01*
X942228Y550554D01*
D02*
G37*
G36*
Y570239D02*
X940939Y570070D01*
X939738Y569572D01*
X938706Y568781D01*
X937915Y567750D01*
X937418Y566549D01*
X937248Y565260D01*
X937418Y563971D01*
X937915Y562770D01*
X938706Y561739D01*
X939738Y560947D01*
X940939Y560450D01*
X942228Y560280D01*
X943516Y560450D01*
X944717Y560947D01*
X945749Y561739D01*
X946540Y562770D01*
X947038Y563971D01*
X947207Y565260D01*
X947038Y566549D01*
X946540Y567750D01*
X945749Y568781D01*
X944717Y569572D01*
X943516Y570070D01*
X942228Y570239D01*
D02*
G37*
G36*
X1119500Y573500D02*
X1115275D01*
X1115372Y572760D01*
X1115851Y571604D01*
X1116612Y570612D01*
X1117605Y569851D01*
X1118760Y569372D01*
X1119500Y569275D01*
Y573500D01*
D02*
G37*
G36*
X1120000Y568791D02*
X1119843Y568771D01*
X1119672D01*
Y568748D01*
X1118760Y568628D01*
X1117605Y568149D01*
X1116612Y567388D01*
X1115851Y566396D01*
X1115372Y565240D01*
X1115209Y564000D01*
X1115372Y562760D01*
X1115851Y561604D01*
X1116612Y560612D01*
X1117605Y559851D01*
X1118760Y559372D01*
X1119672Y559252D01*
Y558748D01*
X1118760Y558628D01*
X1117605Y558149D01*
X1116612Y557388D01*
X1115851Y556395D01*
X1115372Y555240D01*
X1115209Y554000D01*
X1115372Y552760D01*
X1115851Y551605D01*
X1116612Y550612D01*
X1117605Y549851D01*
X1118760Y549372D01*
X1119672Y549252D01*
Y548748D01*
X1118760Y548628D01*
X1117605Y548149D01*
X1116612Y547388D01*
X1115851Y546395D01*
X1115372Y545240D01*
X1115209Y544000D01*
X1115372Y542760D01*
X1115851Y541605D01*
X1116612Y540612D01*
X1117605Y539851D01*
X1118760Y539372D01*
X1119672Y539252D01*
Y539229D01*
X1119843D01*
X1120000Y539209D01*
X1120157Y539229D01*
X1120328D01*
Y539252D01*
X1121240Y539372D01*
X1122396Y539851D01*
X1123388Y540612D01*
X1124149Y541605D01*
X1124628Y542760D01*
X1124791Y544000D01*
X1124628Y545240D01*
X1124149Y546395D01*
X1123388Y547388D01*
X1122396Y548149D01*
X1121240Y548628D01*
X1120328Y548748D01*
Y549252D01*
X1121240Y549372D01*
X1122396Y549851D01*
X1123388Y550612D01*
X1124149Y551605D01*
X1124628Y552760D01*
X1124791Y554000D01*
X1124628Y555240D01*
X1124149Y556395D01*
X1123388Y557388D01*
X1122396Y558149D01*
X1121240Y558628D01*
X1120328Y558748D01*
Y559252D01*
X1121240Y559372D01*
X1122396Y559851D01*
X1123388Y560612D01*
X1124149Y561604D01*
X1124628Y562760D01*
X1124791Y564000D01*
X1124628Y565240D01*
X1124149Y566396D01*
X1123388Y567388D01*
X1122396Y568149D01*
X1121240Y568628D01*
X1120328Y568748D01*
Y568771D01*
X1120157D01*
X1120000Y568791D01*
D02*
G37*
G36*
X1210000Y598791D02*
X1209843Y598771D01*
X1209672D01*
Y598748D01*
X1208760Y598628D01*
X1207605Y598149D01*
X1206612Y597388D01*
X1205851Y596395D01*
X1205372Y595240D01*
X1205209Y594000D01*
X1205372Y592760D01*
X1205851Y591605D01*
X1206612Y590612D01*
X1207605Y589851D01*
X1208760Y589372D01*
X1209672Y589252D01*
Y588748D01*
X1208760Y588628D01*
X1207605Y588149D01*
X1206612Y587388D01*
X1205851Y586396D01*
X1205372Y585240D01*
X1205209Y584000D01*
X1205372Y582760D01*
X1205851Y581604D01*
X1206612Y580612D01*
X1207605Y579851D01*
X1208760Y579372D01*
X1209672Y579252D01*
Y578748D01*
X1208760Y578628D01*
X1207605Y578149D01*
X1206612Y577388D01*
X1205851Y576396D01*
X1205372Y575240D01*
X1205209Y574000D01*
X1205372Y572760D01*
X1205851Y571604D01*
X1206612Y570612D01*
X1207605Y569851D01*
X1208760Y569372D01*
X1209672Y569252D01*
Y568748D01*
X1208760Y568628D01*
X1207605Y568149D01*
X1206612Y567388D01*
X1205851Y566396D01*
X1205372Y565240D01*
X1205209Y564000D01*
X1205372Y562760D01*
X1205851Y561604D01*
X1206612Y560612D01*
X1207605Y559851D01*
X1208760Y559372D01*
X1209672Y559252D01*
Y558748D01*
X1208760Y558628D01*
X1207605Y558149D01*
X1206612Y557388D01*
X1205851Y556395D01*
X1205372Y555240D01*
X1205209Y554000D01*
X1205372Y552760D01*
X1205851Y551605D01*
X1206612Y550612D01*
X1207605Y549851D01*
X1208760Y549372D01*
X1209672Y549252D01*
Y548748D01*
X1208760Y548628D01*
X1207605Y548149D01*
X1206612Y547388D01*
X1205851Y546395D01*
X1205372Y545240D01*
X1205209Y544000D01*
X1205372Y542760D01*
X1205851Y541605D01*
X1206612Y540612D01*
X1207605Y539851D01*
X1208760Y539372D01*
X1209672Y539252D01*
Y539229D01*
X1209843D01*
X1210000Y539209D01*
X1210157Y539229D01*
X1210328D01*
Y539252D01*
X1211240Y539372D01*
X1212395Y539851D01*
X1213388Y540612D01*
X1214149Y541605D01*
X1214628Y542760D01*
X1214791Y544000D01*
X1214628Y545240D01*
X1214149Y546395D01*
X1213388Y547388D01*
X1212395Y548149D01*
X1211240Y548628D01*
X1210328Y548748D01*
Y549252D01*
X1211240Y549372D01*
X1212395Y549851D01*
X1213388Y550612D01*
X1214149Y551605D01*
X1214628Y552760D01*
X1214791Y554000D01*
X1214628Y555240D01*
X1214149Y556395D01*
X1213388Y557388D01*
X1212395Y558149D01*
X1211240Y558628D01*
X1210328Y558748D01*
Y559252D01*
X1211240Y559372D01*
X1212395Y559851D01*
X1213388Y560612D01*
X1214149Y561604D01*
X1214628Y562760D01*
X1214791Y564000D01*
X1214628Y565240D01*
X1214149Y566396D01*
X1213388Y567388D01*
X1212395Y568149D01*
X1211240Y568628D01*
X1210328Y568748D01*
Y569252D01*
X1211240Y569372D01*
X1212395Y569851D01*
X1213388Y570612D01*
X1214149Y571604D01*
X1214628Y572760D01*
X1214791Y574000D01*
X1214628Y575240D01*
X1214149Y576396D01*
X1213388Y577388D01*
X1212395Y578149D01*
X1211240Y578628D01*
X1210328Y578748D01*
Y579252D01*
X1211240Y579372D01*
X1212395Y579851D01*
X1213388Y580612D01*
X1214149Y581604D01*
X1214628Y582760D01*
X1214791Y584000D01*
X1214628Y585240D01*
X1214149Y586396D01*
X1213388Y587388D01*
X1212395Y588149D01*
X1211240Y588628D01*
X1210328Y588748D01*
Y589252D01*
X1211240Y589372D01*
X1212395Y589851D01*
X1213388Y590612D01*
X1214149Y591605D01*
X1214628Y592760D01*
X1214791Y594000D01*
X1214628Y595240D01*
X1214149Y596395D01*
X1213388Y597388D01*
X1212395Y598149D01*
X1211240Y598628D01*
X1210328Y598748D01*
Y598771D01*
X1210157D01*
X1210000Y598791D01*
D02*
G37*
G36*
X1090150Y544150D02*
X1081850D01*
Y535850D01*
X1090150D01*
Y544150D01*
D02*
G37*
G36*
X1119500Y578725D02*
X1118760Y578628D01*
X1117605Y578149D01*
X1116612Y577388D01*
X1115851Y576396D01*
X1115372Y575240D01*
X1115275Y574500D01*
X1119500D01*
Y578725D01*
D02*
G37*
G36*
X1120500D02*
Y574500D01*
X1124725D01*
X1124628Y575240D01*
X1124149Y576396D01*
X1123388Y577388D01*
X1122396Y578149D01*
X1121240Y578628D01*
X1120500Y578725D01*
D02*
G37*
G36*
X1092000Y677529D02*
X1080000D01*
X1079415Y677413D01*
X1078919Y677081D01*
X1051367Y649529D01*
X1011155D01*
X1011057Y649765D01*
X1010496Y650496D01*
X1009765Y651057D01*
X1008914Y651410D01*
X1008000Y651530D01*
X1007086Y651410D01*
X1006235Y651057D01*
X1005504Y650496D01*
X1004943Y649765D01*
X1004590Y648914D01*
X1004470Y648000D01*
X1004590Y647086D01*
X1004943Y646235D01*
X1005504Y645504D01*
X1006235Y644943D01*
X1007086Y644590D01*
X1008000Y644470D01*
X1008914Y644590D01*
X1009765Y644943D01*
X1010496Y645504D01*
X1011057Y646235D01*
X1011155Y646471D01*
X1052000D01*
X1052585Y646587D01*
X1053081Y646919D01*
X1080634Y674471D01*
X1091366D01*
X1108471Y657367D01*
Y638000D01*
X1108587Y637415D01*
X1108919Y636919D01*
X1112918Y632919D01*
X1113415Y632587D01*
X1113512Y632568D01*
X1114000Y632471D01*
X1115492D01*
X1115851Y631604D01*
X1116612Y630612D01*
X1117605Y629851D01*
X1118760Y629372D01*
X1119672Y629252D01*
Y628748D01*
X1118760Y628628D01*
X1117605Y628149D01*
X1116612Y627388D01*
X1115851Y626396D01*
X1115372Y625240D01*
X1115209Y624000D01*
X1115372Y622760D01*
X1115851Y621604D01*
X1116612Y620612D01*
X1117605Y619851D01*
X1118760Y619372D01*
X1119672Y619252D01*
Y618748D01*
X1118760Y618628D01*
X1117605Y618149D01*
X1116612Y617388D01*
X1115851Y616396D01*
X1115372Y615240D01*
X1115209Y614000D01*
X1115372Y612760D01*
X1115851Y611604D01*
X1116612Y610612D01*
X1117605Y609851D01*
X1118760Y609372D01*
X1119672Y609252D01*
Y608748D01*
X1118760Y608628D01*
X1117605Y608149D01*
X1116612Y607388D01*
X1115851Y606395D01*
X1115372Y605240D01*
X1115209Y604000D01*
X1115372Y602760D01*
X1115851Y601605D01*
X1116612Y600612D01*
X1117605Y599851D01*
X1118760Y599372D01*
X1119672Y599252D01*
Y598748D01*
X1118760Y598628D01*
X1117605Y598149D01*
X1116612Y597388D01*
X1115851Y596395D01*
X1115372Y595240D01*
X1115209Y594000D01*
X1115372Y592760D01*
X1115851Y591605D01*
X1116612Y590612D01*
X1117605Y589851D01*
X1118760Y589372D01*
X1119672Y589252D01*
Y588748D01*
X1118760Y588628D01*
X1117605Y588149D01*
X1116612Y587388D01*
X1115851Y586396D01*
X1115372Y585240D01*
X1115209Y584000D01*
X1115372Y582760D01*
X1115851Y581604D01*
X1116612Y580612D01*
X1117605Y579851D01*
X1118760Y579372D01*
X1119672Y579252D01*
Y579229D01*
X1119843D01*
X1120000Y579209D01*
X1120157Y579229D01*
X1120328D01*
Y579252D01*
X1121240Y579372D01*
X1122396Y579851D01*
X1123388Y580612D01*
X1124149Y581604D01*
X1124628Y582760D01*
X1124791Y584000D01*
X1124628Y585240D01*
X1124149Y586396D01*
X1123388Y587388D01*
X1122396Y588149D01*
X1121240Y588628D01*
X1120328Y588748D01*
Y589252D01*
X1121240Y589372D01*
X1122396Y589851D01*
X1123388Y590612D01*
X1124149Y591605D01*
X1124628Y592760D01*
X1124791Y594000D01*
X1124628Y595240D01*
X1124149Y596395D01*
X1123388Y597388D01*
X1122396Y598149D01*
X1121240Y598628D01*
X1120328Y598748D01*
Y599252D01*
X1121240Y599372D01*
X1122396Y599851D01*
X1123388Y600612D01*
X1124149Y601605D01*
X1124628Y602760D01*
X1124791Y604000D01*
X1124628Y605240D01*
X1124149Y606395D01*
X1123388Y607388D01*
X1122396Y608149D01*
X1121240Y608628D01*
X1120328Y608748D01*
Y609252D01*
X1121240Y609372D01*
X1122396Y609851D01*
X1123388Y610612D01*
X1124149Y611604D01*
X1124628Y612760D01*
X1124791Y614000D01*
X1124628Y615240D01*
X1124149Y616396D01*
X1123388Y617388D01*
X1122396Y618149D01*
X1121240Y618628D01*
X1120328Y618748D01*
Y619252D01*
X1121240Y619372D01*
X1122396Y619851D01*
X1123388Y620612D01*
X1124149Y621604D01*
X1124628Y622760D01*
X1124791Y624000D01*
X1124628Y625240D01*
X1124149Y626396D01*
X1123388Y627388D01*
X1122396Y628149D01*
X1121240Y628628D01*
X1120328Y628748D01*
Y629252D01*
X1121240Y629372D01*
X1122396Y629851D01*
X1123388Y630612D01*
X1124149Y631604D01*
X1124628Y632760D01*
X1124791Y634000D01*
X1124628Y635240D01*
X1124149Y636396D01*
X1123388Y637388D01*
X1122396Y638149D01*
X1121240Y638628D01*
X1120328Y638748D01*
Y639252D01*
X1121240Y639372D01*
X1122396Y639851D01*
X1123388Y640612D01*
X1124149Y641605D01*
X1124628Y642760D01*
X1124791Y644000D01*
X1124628Y645240D01*
X1124149Y646395D01*
X1123388Y647388D01*
X1122396Y648149D01*
X1121240Y648628D01*
X1120328Y648748D01*
Y649252D01*
X1121240Y649372D01*
X1122396Y649851D01*
X1123388Y650612D01*
X1124149Y651605D01*
X1124628Y652760D01*
X1124791Y654000D01*
X1124628Y655240D01*
X1124149Y656395D01*
X1123388Y657388D01*
X1122396Y658149D01*
X1121240Y658628D01*
X1120311Y658750D01*
X1120344Y659250D01*
X1124750D01*
Y668750D01*
X1115250D01*
Y659250D01*
X1119656D01*
X1119689Y658750D01*
X1118760Y658628D01*
X1117605Y658149D01*
X1116612Y657388D01*
X1115851Y656395D01*
X1115372Y655240D01*
X1115209Y654000D01*
X1115372Y652760D01*
X1115851Y651605D01*
X1116612Y650612D01*
X1117605Y649851D01*
X1118760Y649372D01*
X1119672Y649252D01*
Y648748D01*
X1118760Y648628D01*
X1117605Y648149D01*
X1116612Y647388D01*
X1115851Y646395D01*
X1115372Y645240D01*
X1115209Y644000D01*
X1115372Y642760D01*
X1115851Y641605D01*
X1116612Y640612D01*
X1117605Y639851D01*
X1118760Y639372D01*
X1119672Y639252D01*
Y638748D01*
X1118760Y638628D01*
X1117605Y638149D01*
X1116612Y637388D01*
X1115851Y636396D01*
X1115492Y635529D01*
X1114633D01*
X1111529Y638633D01*
Y658000D01*
X1111432Y658488D01*
X1111413Y658585D01*
X1111081Y659081D01*
X1093081Y677081D01*
X1092585Y677413D01*
X1092000Y677529D01*
D02*
G37*
G36*
X1124725Y573500D02*
X1120500D01*
Y569275D01*
X1121240Y569372D01*
X1122396Y569851D01*
X1123388Y570612D01*
X1124149Y571604D01*
X1124628Y572760D01*
X1124725Y573500D01*
D02*
G37*
G36*
X1086000Y671531D02*
X1084726Y671406D01*
X1083500Y671034D01*
X1082371Y670431D01*
X1081382Y669618D01*
X1080569Y668629D01*
X1079966Y667499D01*
X1079594Y666274D01*
X1079469Y665000D01*
X1079594Y663726D01*
X1079966Y662500D01*
X1080569Y661371D01*
X1081382Y660382D01*
X1082371Y659569D01*
X1083500Y658966D01*
X1084726Y658594D01*
X1086000Y658468D01*
X1087274Y658594D01*
X1088446Y658949D01*
X1101451Y645944D01*
Y585119D01*
X1090508Y574175D01*
X1089980Y574355D01*
X1089897Y574981D01*
X1089494Y575954D01*
X1088853Y576790D01*
X1088017Y577431D01*
X1087044Y577834D01*
X1086500Y577906D01*
Y573937D01*
X1086000D01*
Y573437D01*
X1082031D01*
X1082103Y572893D01*
X1082506Y571920D01*
X1083147Y571084D01*
X1083826Y570563D01*
X1083657Y570063D01*
X1082000D01*
Y562063D01*
X1090000D01*
Y566458D01*
X1105802Y582261D01*
X1106355Y583087D01*
X1106549Y584063D01*
Y647000D01*
X1106355Y647975D01*
X1105802Y648802D01*
X1092051Y662554D01*
X1092406Y663726D01*
X1092531Y665000D01*
X1092406Y666274D01*
X1092034Y667499D01*
X1091431Y668629D01*
X1090618Y669618D01*
X1089629Y670431D01*
X1088500Y671034D01*
X1087274Y671406D01*
X1086000Y671531D01*
D02*
G37*
G36*
X1085500Y577906D02*
X1084956Y577834D01*
X1083983Y577431D01*
X1083147Y576790D01*
X1082506Y575954D01*
X1082103Y574981D01*
X1082031Y574437D01*
X1085500D01*
Y577906D01*
D02*
G37*
G36*
X1210500Y538725D02*
Y534500D01*
X1214725D01*
X1214628Y535240D01*
X1214149Y536396D01*
X1213388Y537388D01*
X1212395Y538149D01*
X1211240Y538628D01*
X1210500Y538725D01*
D02*
G37*
G36*
X1090120Y529500D02*
X1086500D01*
Y525880D01*
X1087083Y525957D01*
X1088093Y526375D01*
X1088960Y527040D01*
X1089625Y527907D01*
X1090043Y528917D01*
X1090120Y529500D01*
D02*
G37*
G36*
X1119500Y533500D02*
X1115275D01*
X1115372Y532760D01*
X1115851Y531604D01*
X1116612Y530612D01*
X1117605Y529851D01*
X1118760Y529372D01*
X1119500Y529275D01*
Y533500D01*
D02*
G37*
G36*
X1124725D02*
X1120500D01*
Y529275D01*
X1121240Y529372D01*
X1122396Y529851D01*
X1123388Y530612D01*
X1124149Y531604D01*
X1124628Y532760D01*
X1124725Y533500D01*
D02*
G37*
G36*
X1240000Y508541D02*
X1238334Y508377D01*
X1236732Y507891D01*
X1235255Y507102D01*
X1233961Y506039D01*
X1232898Y504745D01*
X1232109Y503268D01*
X1231623Y501666D01*
X1231459Y500000D01*
X1231623Y498334D01*
X1232109Y496732D01*
X1232898Y495255D01*
X1233961Y493961D01*
X1235255Y492898D01*
X1236732Y492109D01*
X1238334Y491623D01*
X1240000Y491459D01*
X1241666Y491623D01*
X1243268Y492109D01*
X1244745Y492898D01*
X1246039Y493961D01*
X1247102Y495255D01*
X1247891Y496732D01*
X1248377Y498334D01*
X1248541Y500000D01*
X1248377Y501666D01*
X1247891Y503268D01*
X1247102Y504745D01*
X1246039Y506039D01*
X1244745Y507102D01*
X1243268Y507891D01*
X1241666Y508377D01*
X1240000Y508541D01*
D02*
G37*
G36*
X1086000Y524185D02*
X1084917Y524043D01*
X1083907Y523625D01*
X1083041Y522960D01*
X1082375Y522093D01*
X1081957Y521083D01*
X1081815Y520000D01*
X1081957Y518917D01*
X1082375Y517907D01*
X1083041Y517040D01*
X1083907Y516375D01*
X1084917Y515957D01*
X1086000Y515815D01*
X1087083Y515957D01*
X1088093Y516375D01*
X1088960Y517040D01*
X1089625Y517907D01*
X1090043Y518917D01*
X1090185Y520000D01*
X1090043Y521083D01*
X1089625Y522093D01*
X1088960Y522960D01*
X1088093Y523625D01*
X1087083Y524043D01*
X1086000Y524185D01*
D02*
G37*
G36*
X1210000Y528791D02*
X1209843Y528770D01*
X1209672D01*
Y528748D01*
X1208760Y528628D01*
X1207605Y528149D01*
X1206612Y527388D01*
X1205851Y526396D01*
X1205372Y525240D01*
X1205209Y524000D01*
X1205372Y522760D01*
X1205851Y521604D01*
X1206612Y520612D01*
X1207605Y519851D01*
X1208760Y519372D01*
X1210000Y519209D01*
X1211240Y519372D01*
X1212395Y519851D01*
X1213388Y520612D01*
X1214149Y521604D01*
X1214628Y522760D01*
X1214791Y524000D01*
X1214628Y525240D01*
X1214149Y526396D01*
X1213388Y527388D01*
X1212395Y528149D01*
X1211240Y528628D01*
X1210328Y528748D01*
Y528770D01*
X1210157D01*
X1210000Y528791D01*
D02*
G37*
G36*
X1119500Y538725D02*
X1118760Y538628D01*
X1117605Y538149D01*
X1116612Y537388D01*
X1115851Y536396D01*
X1115372Y535240D01*
X1115275Y534500D01*
X1119500D01*
Y538725D01*
D02*
G37*
G36*
X1120500D02*
Y534500D01*
X1124725D01*
X1124628Y535240D01*
X1124149Y536396D01*
X1123388Y537388D01*
X1122396Y538149D01*
X1121240Y538628D01*
X1120500Y538725D01*
D02*
G37*
G36*
X1209500D02*
X1208760Y538628D01*
X1207605Y538149D01*
X1206612Y537388D01*
X1205851Y536396D01*
X1205372Y535240D01*
X1205275Y534500D01*
X1209500D01*
Y538725D01*
D02*
G37*
G36*
Y533500D02*
X1205275D01*
X1205372Y532760D01*
X1205851Y531604D01*
X1206612Y530612D01*
X1207605Y529851D01*
X1208760Y529372D01*
X1209500Y529275D01*
Y533500D01*
D02*
G37*
G36*
X1214725D02*
X1210500D01*
Y529275D01*
X1211240Y529372D01*
X1212395Y529851D01*
X1213388Y530612D01*
X1214149Y531604D01*
X1214628Y532760D01*
X1214725Y533500D01*
D02*
G37*
G36*
X1086500Y534120D02*
Y530500D01*
X1090120D01*
X1090043Y531083D01*
X1089625Y532093D01*
X1088960Y532960D01*
X1088093Y533625D01*
X1087083Y534043D01*
X1086500Y534120D01*
D02*
G37*
G36*
X912700Y589924D02*
X911411Y589755D01*
X910210Y589257D01*
X909179Y588466D01*
X908387Y587435D01*
X907890Y586234D01*
X907720Y584945D01*
X907890Y583656D01*
X908387Y582455D01*
X909179Y581424D01*
X910210Y580632D01*
X911411Y580135D01*
X912700Y579965D01*
X913989Y580135D01*
X915190Y580632D01*
X916221Y581424D01*
X917013Y582455D01*
X917510Y583656D01*
X917680Y584945D01*
X917510Y586234D01*
X917013Y587435D01*
X916221Y588466D01*
X915190Y589257D01*
X913989Y589755D01*
X912700Y589924D01*
D02*
G37*
G36*
X1038000Y696531D02*
X1036726Y696406D01*
X1035501Y696034D01*
X1034371Y695431D01*
X1033382Y694618D01*
X1032569Y693629D01*
X1031966Y692499D01*
X1031594Y691274D01*
X1031468Y690000D01*
X1031594Y688726D01*
X1031966Y687500D01*
X1032569Y686371D01*
X1033382Y685382D01*
X1034371Y684569D01*
X1035501Y683966D01*
X1036726Y683594D01*
X1038000Y683468D01*
X1039274Y683594D01*
X1040499Y683966D01*
X1041629Y684569D01*
X1042618Y685382D01*
X1043431Y686371D01*
X1044034Y687500D01*
X1044406Y688726D01*
X1044532Y690000D01*
X1044406Y691274D01*
X1044034Y692499D01*
X1043431Y693629D01*
X1042618Y694618D01*
X1041629Y695431D01*
X1040499Y696034D01*
X1039274Y696406D01*
X1038000Y696531D01*
D02*
G37*
G36*
X981300Y694500D02*
X972300D01*
Y685500D01*
X981300D01*
Y694500D01*
D02*
G37*
G36*
X1015300D02*
X1006300D01*
Y685500D01*
X1015300D01*
Y694500D01*
D02*
G37*
G36*
X912700Y648980D02*
X911411Y648810D01*
X910210Y648313D01*
X909179Y647521D01*
X908387Y646490D01*
X907890Y645289D01*
X907720Y644000D01*
X907890Y642711D01*
X908387Y641510D01*
X909179Y640479D01*
X910210Y639687D01*
X911411Y639190D01*
X912700Y639020D01*
X913989Y639190D01*
X915190Y639687D01*
X916221Y640479D01*
X917013Y641510D01*
X917510Y642711D01*
X917680Y644000D01*
X917510Y645289D01*
X917013Y646490D01*
X916221Y647521D01*
X915190Y648313D01*
X913989Y648810D01*
X912700Y648980D01*
D02*
G37*
G36*
X942228D02*
X940939Y648810D01*
X939738Y648313D01*
X938706Y647521D01*
X937915Y646490D01*
X937418Y645289D01*
X937248Y644000D01*
X937418Y642711D01*
X937915Y641510D01*
X938706Y640479D01*
X939738Y639687D01*
X940939Y639190D01*
X942228Y639020D01*
X943516Y639190D01*
X944717Y639687D01*
X945749Y640479D01*
X946540Y641510D01*
X947038Y642711D01*
X947207Y644000D01*
X947038Y645289D01*
X946540Y646490D01*
X945749Y647521D01*
X944717Y648313D01*
X943516Y648810D01*
X942228Y648980D01*
D02*
G37*
G36*
X1240000Y698541D02*
X1238334Y698377D01*
X1236732Y697891D01*
X1235255Y697102D01*
X1233961Y696039D01*
X1232898Y694745D01*
X1232109Y693268D01*
X1231623Y691666D01*
X1231459Y690000D01*
X1231623Y688334D01*
X1232109Y686731D01*
X1232898Y685255D01*
X1233961Y683960D01*
X1235255Y682898D01*
X1236732Y682109D01*
X1238334Y681623D01*
X1240000Y681459D01*
X1241666Y681623D01*
X1243268Y682109D01*
X1244745Y682898D01*
X1246039Y683960D01*
X1247102Y685255D01*
X1247891Y686731D01*
X1248377Y688334D01*
X1248541Y690000D01*
X1248377Y691666D01*
X1247891Y693268D01*
X1247102Y694745D01*
X1246039Y696039D01*
X1244745Y697102D01*
X1243268Y697891D01*
X1241666Y698377D01*
X1240000Y698541D01*
D02*
G37*
G36*
X967300Y694473D02*
Y690500D01*
X971273D01*
X971184Y691175D01*
X970731Y692269D01*
X970009Y693209D01*
X969069Y693931D01*
X967975Y694384D01*
X967300Y694473D01*
D02*
G37*
G36*
X1000300D02*
X999625Y694384D01*
X998531Y693931D01*
X997591Y693209D01*
X996869Y692269D01*
X996416Y691175D01*
X996327Y690500D01*
X1000300D01*
Y694473D01*
D02*
G37*
G36*
X1001300D02*
Y690500D01*
X1005273D01*
X1005184Y691175D01*
X1004731Y692269D01*
X1004009Y693209D01*
X1003069Y693931D01*
X1001975Y694384D01*
X1001300Y694473D01*
D02*
G37*
G36*
X971273Y689500D02*
X967300D01*
Y685527D01*
X967975Y685616D01*
X969069Y686069D01*
X970009Y686791D01*
X970731Y687731D01*
X971184Y688825D01*
X971273Y689500D01*
D02*
G37*
G36*
X1000300D02*
X996327D01*
X996416Y688825D01*
X996869Y687731D01*
X997591Y686791D01*
X998531Y686069D01*
X999625Y685616D01*
X1000300Y685527D01*
Y689500D01*
D02*
G37*
G36*
X1005273D02*
X1001300D01*
Y685527D01*
X1001975Y685616D01*
X1003069Y686069D01*
X1004009Y686791D01*
X1004731Y687731D01*
X1005184Y688825D01*
X1005273Y689500D01*
D02*
G37*
G36*
X1086000Y636531D02*
X1084726Y636406D01*
X1083500Y636034D01*
X1082371Y635431D01*
X1081382Y634618D01*
X1080569Y633629D01*
X1079992Y632549D01*
X1020000D01*
X1019025Y632355D01*
X1018198Y631802D01*
X1000380Y613984D01*
X1000000Y614035D01*
X998956Y613897D01*
X997983Y613494D01*
X997147Y612853D01*
X996506Y612017D01*
X996103Y611044D01*
X995965Y610000D01*
X996103Y608956D01*
X996506Y607983D01*
X997147Y607147D01*
X997983Y606506D01*
X998956Y606103D01*
X1000000Y605966D01*
X1001044Y606103D01*
X1002017Y606506D01*
X1002853Y607147D01*
X1003494Y607983D01*
X1003897Y608956D01*
X1004035Y610000D01*
X1003985Y610380D01*
X1021056Y627451D01*
X1079992D01*
X1080569Y626371D01*
X1081382Y625382D01*
X1082371Y624569D01*
X1083500Y623966D01*
X1084726Y623594D01*
X1086000Y623468D01*
X1087274Y623594D01*
X1088500Y623966D01*
X1089629Y624569D01*
X1090618Y625382D01*
X1091431Y626371D01*
X1092034Y627500D01*
X1092406Y628726D01*
X1092531Y630000D01*
X1092406Y631274D01*
X1092034Y632500D01*
X1091431Y633629D01*
X1090618Y634618D01*
X1089629Y635431D01*
X1088500Y636034D01*
X1087274Y636406D01*
X1086000Y636531D01*
D02*
G37*
G36*
X1214725Y603500D02*
X1210500D01*
Y599275D01*
X1211240Y599372D01*
X1212395Y599851D01*
X1213388Y600612D01*
X1214149Y601605D01*
X1214628Y602760D01*
X1214725Y603500D01*
D02*
G37*
G36*
X1209500Y608725D02*
X1208760Y608628D01*
X1207605Y608149D01*
X1206612Y607388D01*
X1205851Y606395D01*
X1205372Y605240D01*
X1205275Y604500D01*
X1209500D01*
Y608725D01*
D02*
G37*
G36*
X1210500D02*
Y604500D01*
X1214725D01*
X1214628Y605240D01*
X1214149Y606395D01*
X1213388Y607388D01*
X1212395Y608149D01*
X1211240Y608628D01*
X1210500Y608725D01*
D02*
G37*
G36*
X942228Y589924D02*
X940939Y589755D01*
X939738Y589257D01*
X938706Y588466D01*
X937915Y587435D01*
X937418Y586234D01*
X937248Y584945D01*
X937418Y583656D01*
X937915Y582455D01*
X938706Y581424D01*
X939738Y580632D01*
X940939Y580135D01*
X942228Y579965D01*
X943516Y580135D01*
X944717Y580632D01*
X945749Y581424D01*
X946540Y582455D01*
X947038Y583656D01*
X947207Y584945D01*
X947038Y586234D01*
X946540Y587435D01*
X945749Y588466D01*
X944717Y589257D01*
X943516Y589755D01*
X942228Y589924D01*
D02*
G37*
G36*
X1094000Y608000D02*
X1058000D01*
X1050000Y600000D01*
Y590000D01*
X1058000Y582000D01*
X1094000D01*
X1100000Y588000D01*
Y602000D01*
X1094000Y608000D01*
D02*
G37*
G36*
X1209500Y603500D02*
X1205275D01*
X1205372Y602760D01*
X1205851Y601605D01*
X1206612Y600612D01*
X1207605Y599851D01*
X1208760Y599372D01*
X1209500Y599275D01*
Y603500D01*
D02*
G37*
G36*
X1029500Y613969D02*
X1028956Y613897D01*
X1027983Y613494D01*
X1027147Y612853D01*
X1026506Y612017D01*
X1026103Y611044D01*
X1026031Y610500D01*
X1029500D01*
Y613969D01*
D02*
G37*
G36*
X1030500D02*
Y610500D01*
X1033969D01*
X1033897Y611044D01*
X1033494Y612017D01*
X1032853Y612853D01*
X1032017Y613494D01*
X1031044Y613897D01*
X1030500Y613969D01*
D02*
G37*
G36*
X1060000Y623034D02*
X1058956Y622897D01*
X1057983Y622494D01*
X1057147Y621853D01*
X1056506Y621017D01*
X1056103Y620044D01*
X1055966Y619000D01*
X1056103Y617956D01*
X1056506Y616983D01*
X1057147Y616147D01*
X1057983Y615506D01*
X1058956Y615103D01*
X1060000Y614965D01*
X1061044Y615103D01*
X1062017Y615506D01*
X1062853Y616147D01*
X1063494Y616983D01*
X1063897Y617956D01*
X1064034Y619000D01*
X1063897Y620044D01*
X1063494Y621017D01*
X1062853Y621853D01*
X1062017Y622494D01*
X1061044Y622897D01*
X1060000Y623034D01*
D02*
G37*
G36*
X1029500Y609500D02*
X1026031D01*
X1026103Y608956D01*
X1026506Y607983D01*
X1027147Y607147D01*
X1027983Y606506D01*
X1028956Y606103D01*
X1029500Y606031D01*
Y609500D01*
D02*
G37*
G36*
X1033969D02*
X1030500D01*
Y606031D01*
X1031044Y606103D01*
X1032017Y606506D01*
X1032853Y607147D01*
X1033494Y607983D01*
X1033897Y608956D01*
X1033969Y609500D01*
D02*
G37*
G36*
X1210000Y668791D02*
X1208760Y668628D01*
X1207605Y668149D01*
X1206612Y667388D01*
X1205851Y666396D01*
X1205372Y665240D01*
X1205209Y664000D01*
X1205372Y662760D01*
X1205851Y661604D01*
X1206612Y660612D01*
X1207605Y659851D01*
X1208760Y659372D01*
X1209672Y659252D01*
Y658748D01*
X1208760Y658628D01*
X1207605Y658149D01*
X1206612Y657388D01*
X1205851Y656395D01*
X1205372Y655240D01*
X1205209Y654000D01*
X1205372Y652760D01*
X1205851Y651605D01*
X1206612Y650612D01*
X1207605Y649851D01*
X1208760Y649372D01*
X1209672Y649252D01*
Y648748D01*
X1208760Y648628D01*
X1207605Y648149D01*
X1206612Y647388D01*
X1205851Y646395D01*
X1205372Y645240D01*
X1205209Y644000D01*
X1205372Y642760D01*
X1205851Y641605D01*
X1206612Y640612D01*
X1207605Y639851D01*
X1208760Y639372D01*
X1209672Y639252D01*
Y638748D01*
X1208760Y638628D01*
X1207605Y638149D01*
X1206612Y637388D01*
X1205851Y636396D01*
X1205372Y635240D01*
X1205209Y634000D01*
X1205372Y632760D01*
X1205851Y631604D01*
X1206612Y630612D01*
X1207605Y629851D01*
X1208760Y629372D01*
X1209672Y629252D01*
Y628748D01*
X1208760Y628628D01*
X1207605Y628149D01*
X1206612Y627388D01*
X1205851Y626396D01*
X1205372Y625240D01*
X1205209Y624000D01*
X1205372Y622760D01*
X1205851Y621604D01*
X1206612Y620612D01*
X1207605Y619851D01*
X1208760Y619372D01*
X1209672Y619252D01*
Y618748D01*
X1208760Y618628D01*
X1207605Y618149D01*
X1206612Y617388D01*
X1205851Y616396D01*
X1205372Y615240D01*
X1205209Y614000D01*
X1205372Y612760D01*
X1205851Y611604D01*
X1206612Y610612D01*
X1207605Y609851D01*
X1208760Y609372D01*
X1209672Y609252D01*
Y609230D01*
X1209843D01*
X1210000Y609209D01*
X1210157Y609230D01*
X1210328D01*
Y609252D01*
X1211240Y609372D01*
X1212395Y609851D01*
X1213388Y610612D01*
X1214149Y611604D01*
X1214628Y612760D01*
X1214791Y614000D01*
X1214628Y615240D01*
X1214149Y616396D01*
X1213388Y617388D01*
X1212395Y618149D01*
X1211240Y618628D01*
X1210328Y618748D01*
Y619252D01*
X1211240Y619372D01*
X1212395Y619851D01*
X1213388Y620612D01*
X1214149Y621604D01*
X1214628Y622760D01*
X1214791Y624000D01*
X1214628Y625240D01*
X1214149Y626396D01*
X1213388Y627388D01*
X1212395Y628149D01*
X1211240Y628628D01*
X1210328Y628748D01*
Y629252D01*
X1211240Y629372D01*
X1212395Y629851D01*
X1213388Y630612D01*
X1214149Y631604D01*
X1214628Y632760D01*
X1214791Y634000D01*
X1214628Y635240D01*
X1214149Y636396D01*
X1213388Y637388D01*
X1212395Y638149D01*
X1211240Y638628D01*
X1210328Y638748D01*
Y639252D01*
X1211240Y639372D01*
X1212395Y639851D01*
X1213388Y640612D01*
X1214149Y641605D01*
X1214628Y642760D01*
X1214791Y644000D01*
X1214628Y645240D01*
X1214149Y646395D01*
X1213388Y647388D01*
X1212395Y648149D01*
X1211240Y648628D01*
X1210328Y648748D01*
Y649252D01*
X1211240Y649372D01*
X1212395Y649851D01*
X1213388Y650612D01*
X1214149Y651605D01*
X1214628Y652760D01*
X1214791Y654000D01*
X1214628Y655240D01*
X1214149Y656395D01*
X1213388Y657388D01*
X1212395Y658149D01*
X1211240Y658628D01*
X1210328Y658748D01*
Y659252D01*
X1211240Y659372D01*
X1212395Y659851D01*
X1213388Y660612D01*
X1214149Y661604D01*
X1214628Y662760D01*
X1214791Y664000D01*
X1214628Y665240D01*
X1214149Y666396D01*
X1213388Y667388D01*
X1212395Y668149D01*
X1211240Y668628D01*
X1210000Y668791D01*
D02*
G37*
%LPD*%
D15*
X1114000Y634000D02*
X1120000D01*
X1110000Y638000D02*
X1114000Y634000D01*
X1110000Y638000D02*
Y658000D01*
X1092000Y676000D02*
X1110000Y658000D01*
X1080000Y676000D02*
X1092000D01*
X1052000Y648000D02*
X1080000Y676000D01*
X1008000Y648000D02*
X1052000D01*
D16*
X1034000Y530000D02*
X1086000D01*
X1030000Y526000D02*
X1034000Y530000D01*
X1030000Y500000D02*
Y526000D01*
X850000Y680000D02*
X860000Y690000D01*
X966800D01*
X1108000Y528000D02*
Y552000D01*
X1104000Y556000D02*
X1108000Y552000D01*
X1015464Y556000D02*
X1104000D01*
X1112000Y524000D02*
X1120000D01*
X1108000Y528000D02*
X1112000Y524000D01*
X927464Y644000D02*
X1015464Y556000D01*
X1036000Y670000D02*
X1060000Y694000D01*
X953464Y670000D02*
X1036000D01*
X1086000Y665000D02*
X1104000Y647000D01*
Y584063D02*
Y647000D01*
X1086000Y566063D02*
X1104000Y584063D01*
X1000000Y610000D02*
X1020000Y630000D01*
X1086000D01*
X927464Y644000D02*
X953464Y670000D01*
D17*
X850000Y680000D02*
D03*
Y510000D02*
D03*
X940000D02*
D03*
Y680000D02*
D03*
D18*
X1086000Y566063D02*
D03*
D19*
Y573937D02*
D03*
X1060000Y619000D02*
D03*
Y595000D02*
D03*
X970000Y500000D02*
D03*
X1030000D02*
D03*
X1000000Y610000D02*
D03*
X1030000D02*
D03*
D20*
X1086000Y520000D02*
D03*
Y530000D02*
D03*
D21*
Y540000D02*
D03*
D22*
Y595000D02*
D03*
Y665000D02*
D03*
Y496000D02*
D03*
X1060000D02*
D03*
X1086000Y630000D02*
D03*
X890000Y600000D02*
D03*
X850000D02*
D03*
X1038000Y690000D02*
D03*
D23*
X1060000Y694000D02*
D03*
Y520000D02*
D03*
X1000800Y690000D02*
D03*
X966800D02*
D03*
D24*
X942228Y545575D02*
D03*
X912700D02*
D03*
X942228Y565260D02*
D03*
X912700D02*
D03*
X942228Y644000D02*
D03*
X927464D02*
D03*
X912700D02*
D03*
X942228Y584945D02*
D03*
X912700D02*
D03*
D25*
X1120000Y524000D02*
D03*
Y534000D02*
D03*
Y544000D02*
D03*
Y554000D02*
D03*
Y564000D02*
D03*
Y574000D02*
D03*
Y584000D02*
D03*
Y594000D02*
D03*
Y604000D02*
D03*
Y614000D02*
D03*
Y624000D02*
D03*
Y634000D02*
D03*
Y644000D02*
D03*
Y654000D02*
D03*
X1210000Y664000D02*
D03*
Y654000D02*
D03*
Y644000D02*
D03*
Y634000D02*
D03*
Y624000D02*
D03*
Y614000D02*
D03*
Y604000D02*
D03*
Y594000D02*
D03*
Y584000D02*
D03*
Y574000D02*
D03*
Y564000D02*
D03*
Y554000D02*
D03*
Y544000D02*
D03*
Y534000D02*
D03*
Y524000D02*
D03*
D26*
X1120000Y664000D02*
D03*
D27*
X820000Y690000D02*
D03*
Y500000D02*
D03*
X1240000Y690000D02*
D03*
Y500000D02*
D03*
D28*
X1010800Y690000D02*
D03*
X976800D02*
D03*
D29*
X1008000Y648000D02*
D03*
M02*
