M48
;Layer_Color=6321
;FILE_FORMAT=2:5
INCH,LZ
;TYPE=PLATED
T1F00S00C0.02800
T2F00S00C0.03000
T3F00S00C0.03500
T4F00S00C0.03937
T5F00S00C0.04000
T6F00S00C0.05500
T7F00S00C0.05512
T8F00S00C0.06300
T9F00S00C0.12500
%
T01
X1008Y0648
T02
X1086Y0566063
Y0573937
X106Y0595
Y0619
T03
X09668Y069
X09768
X10008
X10108
T04
X1086Y052
Y053
Y054
T05
X112Y0524
Y0534
Y0544
Y0554
Y0564
Y0574
Y0584
Y0594
Y0604
Y0614
Y0624
X121
Y0614
Y0604
Y0594
Y0584
Y0574
Y0564
Y0554
Y0544
Y0534
Y0524
X106Y052
X103Y05
X097
X1Y061
X103
X106Y0694
X112Y0664
Y0654
Y0644
Y0634
X121
Y0644
Y0654
Y0664
T06
X094Y051
X085
Y068
X094
T07
X0942228Y0545575
Y056526
X0942228Y0584945
X09127
Y056526
Y0545575
Y0644
X0927464
X0942228
T08
X106Y0496
X1086
Y0595
X089Y06
X085
X1086Y063
Y0665
X1038Y069
T09
X124Y05
X082
Y069
X124
M30
