G04 Layer_Color=8150272*
%FSLAX25Y25*%
%MOIN*%
G70*
G01*
G75*
%ADD37C,0.09800*%
%ADD38R,0.06800X0.06800*%
%ADD39C,0.06800*%
%ADD40C,0.07099*%
%ADD41R,0.07099X0.07099*%
%ADD42C,0.11800*%
%ADD43C,0.07800*%
%ADD44C,0.08674*%
%ADD45C,0.08300*%
%ADD46R,0.08300X0.08300*%
%ADD47C,0.15800*%
%ADD48R,0.07800X0.07800*%
%ADD49C,0.05800*%
D37*
X850000Y680000D02*
D03*
Y510000D02*
D03*
X940000D02*
D03*
Y680000D02*
D03*
D38*
X1086000Y566063D02*
D03*
D39*
Y573937D02*
D03*
X1060000Y619000D02*
D03*
Y595000D02*
D03*
X970000Y500000D02*
D03*
X1030000D02*
D03*
X1000000Y610000D02*
D03*
X1030000D02*
D03*
D40*
X1086000Y520000D02*
D03*
Y530000D02*
D03*
D41*
Y540000D02*
D03*
D42*
Y595000D02*
D03*
Y665000D02*
D03*
Y496000D02*
D03*
X1060000D02*
D03*
X1086000Y630000D02*
D03*
X890000Y600000D02*
D03*
X850000D02*
D03*
X1038000Y690000D02*
D03*
D43*
X1060000Y694000D02*
D03*
Y520000D02*
D03*
X1000800Y690000D02*
D03*
X966800D02*
D03*
D44*
X942228Y545575D02*
D03*
X912700D02*
D03*
X942228Y565260D02*
D03*
X912700D02*
D03*
X942228Y644000D02*
D03*
X927464D02*
D03*
X912700D02*
D03*
X942228Y584945D02*
D03*
X912700D02*
D03*
D45*
X1120000Y524000D02*
D03*
Y534000D02*
D03*
Y544000D02*
D03*
Y554000D02*
D03*
Y564000D02*
D03*
Y574000D02*
D03*
Y584000D02*
D03*
Y594000D02*
D03*
Y604000D02*
D03*
Y614000D02*
D03*
Y624000D02*
D03*
Y634000D02*
D03*
Y644000D02*
D03*
Y654000D02*
D03*
X1210000Y664000D02*
D03*
Y654000D02*
D03*
Y644000D02*
D03*
Y634000D02*
D03*
Y624000D02*
D03*
Y614000D02*
D03*
Y604000D02*
D03*
Y594000D02*
D03*
Y584000D02*
D03*
Y574000D02*
D03*
Y564000D02*
D03*
Y554000D02*
D03*
Y544000D02*
D03*
Y534000D02*
D03*
Y524000D02*
D03*
D46*
X1120000Y664000D02*
D03*
D47*
X820000Y690000D02*
D03*
Y500000D02*
D03*
X1240000Y690000D02*
D03*
Y500000D02*
D03*
D48*
X1010800Y690000D02*
D03*
X976800D02*
D03*
D49*
X1008000Y648000D02*
D03*
M02*
