G04 Layer_Color=7318015*
%FSLAX25Y25*%
%MOIN*%
G70*
G01*
G75*
%ADD10R,0.04134X0.03740*%
%ADD11R,0.03740X0.04134*%
%ADD12R,0.03543X0.03150*%
G04:AMPARAMS|DCode=13|XSize=36mil|YSize=48mil|CornerRadius=9mil|HoleSize=0mil|Usage=FLASHONLY|Rotation=270.000|XOffset=0mil|YOffset=0mil|HoleType=Round|Shape=RoundedRectangle|*
%AMROUNDEDRECTD13*
21,1,0.03600,0.03000,0,0,270.0*
21,1,0.01800,0.04800,0,0,270.0*
1,1,0.01800,-0.01500,-0.00900*
1,1,0.01800,-0.01500,0.00900*
1,1,0.01800,0.01500,0.00900*
1,1,0.01800,0.01500,-0.00900*
%
%ADD13ROUNDEDRECTD13*%
D10*
X1022000Y662756D02*
D03*
Y657244D02*
D03*
Y632756D02*
D03*
Y627244D02*
D03*
D11*
X1005394Y635549D02*
D03*
X1010906D02*
D03*
X1010906Y627549D02*
D03*
X1005394D02*
D03*
X1010906Y657549D02*
D03*
X1005394D02*
D03*
X1005394Y665549D02*
D03*
X1010906D02*
D03*
D12*
X992087Y627809D02*
D03*
Y635289D02*
D03*
X984213Y631549D02*
D03*
X992087Y657809D02*
D03*
Y665289D02*
D03*
X984213Y661549D02*
D03*
D13*
X970150Y637999D02*
D03*
Y625099D02*
D03*
Y655099D02*
D03*
Y667999D02*
D03*
M02*
